<svg width="24" height="24" viewBox="0 0 24 24" fill="none" xmlns="http://www.w3.org/2000/svg">
<path d="M12.0001 8.1377C9.8691 8.1377 8.1377 9.86911 8.1377 12.0001C8.1377 14.131 9.8691 15.8625 12.0001 15.8625C14.131 15.8625 15.8624 14.131 15.8624 12.0001C15.8624 9.86911 14.131 8.1377 12.0001 8.1377Z" fill="white"/>
<path d="M21.7669 11.3339C20.6792 9.97981 16.7947 5.5625 12 5.5625C7.20533 5.5625 3.32075 9.97981 2.23307 11.3339C1.92231 11.7112 1.92231 12.2662 2.23307 12.6657C3.32075 14.0198 7.20533 18.4371 12 18.4371C16.7947 18.4371 20.6792 14.0198 21.7669 12.6657C22.0777 12.2884 22.0777 11.7334 21.7669 11.3339ZM12 16.6613C9.42508 16.6613 7.33851 14.5747 7.33851 11.9998C7.33851 9.42487 9.42508 7.3383 12 7.3383C14.5749 7.3383 16.6615 9.42487 16.6615 11.9998C16.6615 14.5747 14.5749 16.6613 12 16.6613Z" fill="white"/>
<path d="M16.6663 11.9999C16.6663 14.5772 14.577 16.6666 11.9997 16.6666C9.42235 16.6666 7.33301 14.5772 7.33301 11.9999C7.33301 9.42259 9.42235 7.33325 11.9997 7.33325C14.577 7.33325 16.6663 9.42259 16.6663 11.9999ZM8.82634 11.9999C8.82634 13.7525 10.2471 15.1733 11.9997 15.1733C13.7523 15.1733 15.173 13.7525 15.173 11.9999C15.173 10.2473 13.7523 8.82659 11.9997 8.82659C10.2471 8.82659 8.82634 10.2473 8.82634 11.9999Z" fill="#2A2A37"/>
<path d="M12.0001 10.0026C11.7421 9.98804 11.484 10.0289 11.2416 10.1228C10.9991 10.2166 10.7775 10.3615 10.5903 10.5484C10.403 10.7354 10.2541 10.9606 10.1526 11.2101C10.0511 11.4597 9.99925 11.7284 10.0001 11.9998L11.2278 11.9954C11.2275 11.8995 11.2458 11.8047 11.2817 11.7166C11.3175 11.6284 11.3701 11.5489 11.4362 11.4829C11.5023 11.4169 11.5806 11.3657 11.6662 11.3326C11.7518 11.2995 11.8429 11.285 11.934 11.2902L12.0001 10.0026Z" fill="white"/>
</svg>
