<svg width="24" height="24" viewBox="0 0 24 24" fill="none" xmlns="http://www.w3.org/2000/svg">
<path d="M12 9.75C11.4033 9.75 10.831 9.98705 10.409 10.409C9.98705 10.831 9.75 11.4033 9.75 12C9.75 12.5967 9.98705 13.169 10.409 13.591C10.831 14.0129 11.4033 14.25 12 14.25C12.5967 14.25 13.169 14.0129 13.591 13.591C14.0129 13.169 14.25 12.5967 14.25 12C14.25 11.4033 14.0129 10.831 13.591 10.409C13.169 9.98705 12.5967 9.75 12 9.75ZM12 8.25C12.9946 8.25 13.9484 8.64509 14.6517 9.34835C15.3549 10.0516 15.75 11.0054 15.75 12C15.75 12.9946 15.3549 13.9484 14.6517 14.6517C13.9484 15.3549 12.9946 15.75 12 15.75C11.0054 15.75 10.0516 15.3549 9.34835 14.6517C8.64509 13.9484 8.25 12.9946 8.25 12C8.25 11.0054 8.64509 10.0516 9.34835 9.34835C10.0516 8.64509 11.0054 8.25 12 8.25ZM16.875 8.0625C16.875 8.31114 16.7762 8.5496 16.6004 8.72541C16.4246 8.90123 16.1861 9 15.9375 9C15.6889 9 15.4504 8.90123 15.2746 8.72541C15.0988 8.5496 15 8.31114 15 8.0625C15 7.81386 15.0988 7.5754 15.2746 7.39959C15.4504 7.22377 15.6889 7.125 15.9375 7.125C16.1861 7.125 16.4246 7.22377 16.6004 7.39959C16.7762 7.5754 16.875 7.81386 16.875 8.0625ZM12 6C10.1445 6 9.8415 6.00525 8.97825 6.0435C8.39025 6.07125 7.99575 6.15 7.62975 6.2925C7.30425 6.4185 7.0695 6.56925 6.81975 6.81975C6.58501 7.04655 6.40451 7.32344 6.29175 7.62975C6.14925 7.99725 6.0705 8.391 6.0435 8.97825C6.0045 9.80625 6 10.0957 6 12C6 13.8555 6.00525 14.1585 6.0435 15.0217C6.07125 15.609 6.15 16.0043 6.29175 16.3695C6.41925 16.6958 6.56925 16.9305 6.81825 17.1795C7.071 17.4315 7.30575 17.5822 7.62825 17.7067C7.99875 17.85 8.39325 17.9295 8.97825 17.9565C9.80625 17.9955 10.0957 18 12 18C13.8555 18 14.1585 17.9948 15.0217 17.9565C15.6082 17.9288 16.0035 17.85 16.3695 17.7083C16.6943 17.5815 16.9305 17.4307 17.1795 17.1818C17.4323 16.929 17.583 16.6943 17.7075 16.3717C17.85 16.002 17.9295 15.6067 17.9565 15.0217C17.9955 14.1937 18 13.9043 18 12C18 10.1445 17.9948 9.8415 17.9565 8.97825C17.9288 8.39175 17.85 7.99575 17.7075 7.62975C17.5945 7.32375 17.4143 7.04697 17.1803 6.81975C16.9536 6.58488 16.6766 6.40438 16.3702 6.29175C16.0027 6.14925 15.6082 6.0705 15.0217 6.0435C14.1937 6.0045 13.9043 6 12 6ZM12 4.5C14.0378 4.5 14.292 4.5075 15.0915 4.545C15.8903 4.5825 16.434 4.70775 16.9125 4.89375C17.4075 5.08425 17.8245 5.34225 18.2415 5.7585C18.6229 6.13342 18.918 6.58694 19.1063 7.0875C19.2915 7.56525 19.4175 8.10975 19.455 8.9085C19.4903 9.708 19.5 9.96225 19.5 12C19.5 14.0378 19.4925 14.292 19.455 15.0915C19.4175 15.8903 19.2915 16.434 19.1063 16.9125C18.9185 17.4133 18.6233 17.867 18.2415 18.2415C17.8665 18.6227 17.413 18.9178 16.9125 19.1063C16.4347 19.2915 15.8903 19.4175 15.0915 19.455C14.292 19.4903 14.0378 19.5 12 19.5C9.96225 19.5 9.708 19.4925 8.9085 19.455C8.10975 19.4175 7.566 19.2915 7.0875 19.1063C6.58674 18.9184 6.13315 18.6232 5.7585 18.2415C5.37705 17.8666 5.08195 17.4131 4.89375 16.9125C4.70775 16.4347 4.5825 15.8903 4.545 15.0915C4.50975 14.292 4.5 14.0378 4.5 12C4.5 9.96225 4.5075 9.708 4.545 8.9085C4.5825 8.109 4.70775 7.566 4.89375 7.0875C5.08143 6.58663 5.3766 6.13299 5.7585 5.7585C6.13325 5.37692 6.58682 5.0818 7.0875 4.89375C7.566 4.70775 8.109 4.5825 8.9085 4.545C9.708 4.50975 9.96225 4.5 12 4.5Z" fill="white"/>
</svg>
