<svg width="80" height="80" viewBox="0 0 80 80" fill="none" xmlns="http://www.w3.org/2000/svg">
<path d="M75.1981 30.4663C74.3377 29.2581 72.8881 28.565 71.2208 28.565H64.8748V21.6887C64.8748 19.0387 62.7111 16.8828 60.0515 16.8828H37.8062C36.8598 16.8828 35.3828 16.1357 34.8246 15.3745L33.1596 13.1054C31.8607 11.3353 29.2217 10 27.0207 10H19.3124C16.8896 10 14.4528 11.7166 13.6449 13.9933L13.1148 15.4875C12.8651 16.1915 11.884 16.8828 11.1344 16.8828H8.82335C6.16373 16.8828 4 19.0387 4 21.6887V65.0897C4 65.3196 4.04198 65.5391 4.1155 65.7441C4.15513 66.6029 4.42315 67.4129 4.91148 68.0987C5.77186 69.3072 7.22148 70 8.88879 70H58.0312C61.0021 70 64.0981 67.8116 65.0798 65.0177L75.6851 34.8347C76.2358 33.267 76.0585 31.6748 75.1981 30.4663ZM8.82335 20.7795H11.1344C13.5578 20.7795 15.9942 19.0629 16.802 16.7862L17.3317 15.2924C17.5818 14.5882 18.5629 13.8969 19.3124 13.8969H27.0204C27.9668 13.8969 29.4438 14.644 30.0023 15.4052L31.6672 17.6741C32.9662 19.4445 35.6052 20.7795 37.8062 20.7795H60.0515C60.5463 20.7795 60.964 21.1959 60.964 21.6887V28.565H22.0784C19.1075 28.565 16.0114 30.7534 15.0298 33.5473L7.91082 53.8081V21.6887C7.91082 21.1959 8.32876 20.7795 8.82335 20.7795ZM71.9938 33.5473L61.3885 63.7303C60.952 64.9723 59.3517 66.1033 58.0312 66.1033H8.88879C8.51127 66.1033 8.21691 66.0064 8.10141 65.8441C7.98591 65.6817 7.99113 65.3728 8.11601 65.0177L18.7214 34.8347C19.1578 33.5927 20.7581 32.4616 22.0787 32.4616H71.2211C71.5986 32.4616 71.8929 32.5585 72.0087 32.7209C72.1239 32.8833 72.1187 33.1921 71.9938 33.5473Z" fill="white"/>
</svg>
