<svg width="56" height="56" viewBox="0 0 56 56" fill="none" xmlns="http://www.w3.org/2000/svg">
<circle cx="28.0021" cy="28.0002" r="24.3478" fill="#3D8DFF"/>
<circle cx="28" cy="28" r="27.5747" fill="#3D8DFF" stroke="#299AFF" stroke-width="0.850591"/>
<path d="M50.9193 27.9996C50.9193 40.6567 40.6587 50.9173 28.0015 50.9173C15.3444 50.9173 5.08374 40.6567 5.08374 27.9996C5.08374 15.3424 15.3444 5.08179 28.0015 5.08179C40.6587 5.08179 50.9193 15.3424 50.9193 27.9996Z" fill="#3D8DFF" stroke="white" stroke-width="0.425295"/>
<rect width="29.2174" height="29.2174" transform="translate(13.3906 13.3906)" fill="#3D8DFF"/>
<path d="M23.1299 21.6937V34.3059C23.1299 35.2676 24.189 35.852 25.0047 35.3285L34.9142 29.0224C35.669 28.5476 35.669 27.452 34.9142 26.965L25.0047 20.6711C24.189 20.1476 23.1299 20.732 23.1299 21.6937Z" fill="white"/>
</svg>
