<svg width="18" height="18" viewBox="0 0 18 18" fill="none" xmlns="http://www.w3.org/2000/svg">
<path d="M12.5006 11.4716H11.7106L11.4306 11.2016C12.6306 9.80157 13.2506 7.89157 12.9106 5.86157C12.4406 3.08157 10.1206 0.861573 7.32063 0.521573C3.09063 0.00157288 -0.469374 3.56157 0.0506256 7.79157C0.390626 10.5916 2.61063 12.9116 5.39063 13.3816C7.42063 13.7216 9.33063 13.1016 10.7306 11.9016L11.0006 12.1816V12.9716L15.2506 17.2216C15.6606 17.6316 16.3306 17.6316 16.7406 17.2216C17.1506 16.8116 17.1506 16.1416 16.7406 15.7316L12.5006 11.4716ZM6.50063 11.4716C4.01063 11.4716 2.00063 9.46157 2.00063 6.97157C2.00063 4.48157 4.01063 2.47157 6.50063 2.47157C8.99063 2.47157 11.0006 4.48157 11.0006 6.97157C11.0006 9.46157 8.99063 11.4716 6.50063 11.4716Z" fill="#A2A0B3"/>
</svg>
