<svg width="24" height="24" viewBox="0 0 24 24" fill="none" xmlns="http://www.w3.org/2000/svg">
<path d="M13.4604 3.65911C13.2516 3.55951 13.0056 3.58591 12.8256 3.73111L6.98871 8.40034H4.19989C3.53868 8.40034 2.99988 8.93915 2.99988 9.60035V14.4004C2.99988 15.0628 3.53868 15.6004 4.19989 15.6004H6.98871L12.8244 20.2696C12.9336 20.356 13.0668 20.4004 13.2 20.4004C13.2888 20.4004 13.3776 20.38 13.4604 20.3404C13.668 20.2408 13.8 20.0308 13.8 19.8004V4.20031C13.8 3.96991 13.668 3.75991 13.4604 3.65911Z" fill="white"/>
<path d="M16.8378 7.75714C16.6014 7.52434 16.2222 7.52794 15.9894 7.76194C15.7566 7.99834 15.759 8.37754 15.9942 8.61154C16.9014 9.50675 17.4006 10.7104 17.4006 12.0004C17.4006 13.2904 16.9014 14.494 15.9942 15.3892C15.759 15.6208 15.7566 16.0012 15.9894 16.2376C16.107 16.3564 16.2618 16.4152 16.4154 16.4152C16.5678 16.4152 16.7202 16.3576 16.8378 16.2412C17.9754 15.1216 18.6006 13.6144 18.6006 12.0004C18.6006 10.3864 17.9754 8.87915 16.8378 7.75714Z" fill="white"/>
<path d="M18.5306 6.06625C18.2942 5.83225 17.915 5.83465 17.6809 6.06985C17.4481 6.30505 17.4505 6.68545 17.6845 6.91825C19.049 8.27066 19.8002 10.0755 19.8002 12.0003C19.8002 13.9251 19.049 15.7287 17.6845 17.0811C17.4505 17.3151 17.4481 17.6955 17.6809 17.9307C17.7998 18.0483 17.9534 18.1071 18.107 18.1071C18.2594 18.1071 18.413 18.0495 18.5306 17.9331C20.1242 16.3551 21.0002 14.2479 21.0002 12.0003C21.0002 9.75267 20.1242 7.64546 18.5306 6.06625Z" fill="white"/>
</svg>
