<svg width="26" height="26" viewBox="0 0 26 26" fill="none" xmlns="http://www.w3.org/2000/svg">
<g clip-path="url(#clip0_909_82840)">
<path d="M20.5833 4.33329H19.5V3.24996C19.5 2.65413 19.0125 2.16663 18.4167 2.16663C17.8208 2.16663 17.3333 2.65413 17.3333 3.24996V4.33329H8.66667V3.24996C8.66667 2.65413 8.17917 2.16663 7.58333 2.16663C6.9875 2.16663 6.5 2.65413 6.5 3.24996V4.33329H5.41667C4.21417 4.33329 3.26083 5.30829 3.26083 6.49996L3.25 21.6666C3.25 22.8583 4.21417 23.8333 5.41667 23.8333H20.5833C21.775 23.8333 22.75 22.8583 22.75 21.6666V6.49996C22.75 5.30829 21.775 4.33329 20.5833 4.33329ZM20.5833 20.5833C20.5833 21.1791 20.0958 21.6666 19.5 21.6666H6.5C5.90417 21.6666 5.41667 21.1791 5.41667 20.5833V9.74996H20.5833V20.5833ZM7.58333 11.9166H9.75V14.0833H7.58333V11.9166ZM11.9167 11.9166H14.0833V14.0833H11.9167V11.9166ZM16.25 11.9166H18.4167V14.0833H16.25V11.9166Z" fill="white"/>
</g>
<defs>
<clipPath id="clip0_909_82840">
<rect width="26" height="26" fill="white"/>
</clipPath>
</defs>
</svg>
