<svg width="28" height="28" viewBox="0 0 28 28" fill="none" xmlns="http://www.w3.org/2000/svg">
<g clip-path="url(#clip0_461_35423)">
<path d="M14.8405 2.36833C7.73549 1.86666 1.86715 7.735 2.36882 14.84C2.78882 21.0117 8.17882 25.6667 14.3622 25.6667H18.6672C19.3088 25.6667 19.8338 25.1417 19.8338 24.5C19.8338 23.8583 19.3088 23.3333 18.6672 23.3333H14.3855C10.0338 23.3333 6.04382 20.51 4.95882 16.2983C3.22049 9.53166 9.52049 3.22 16.2872 4.97C20.5105 6.04333 23.3338 10.0333 23.3338 14.385V15.6683C23.3338 16.59 22.5055 17.5 21.5838 17.5C20.6622 17.5 19.8338 16.59 19.8338 15.6683V14.21C19.8338 11.2817 17.7572 8.645 14.8638 8.23667C10.8972 7.665 7.54882 11.095 8.26049 15.085C8.65715 17.3133 10.3955 19.1567 12.6005 19.6817C14.7472 20.1833 16.7888 19.495 18.1305 18.13C19.1688 19.5533 21.2455 20.3 23.1472 19.5417C24.7105 18.9233 25.6672 17.325 25.6672 15.645V14.3733C25.6672 8.17833 21.0122 2.78833 14.8405 2.36833ZM14.0005 17.5C12.0638 17.5 10.5005 15.9367 10.5005 14C10.5005 12.0633 12.0638 10.5 14.0005 10.5C15.9372 10.5 17.5005 12.0633 17.5005 14C17.5005 15.9367 15.9372 17.5 14.0005 17.5Z" fill="white"/>
</g>
<defs>
<clipPath id="clip0_461_35423">
<rect width="28" height="28" fill="white"/>
</clipPath>
</defs>
</svg>
