<svg width="56" height="56" viewBox="0 0 56 56" fill="none" xmlns="http://www.w3.org/2000/svg">
<rect x="0.000244141" width="56" height="56" fill="#3C3976"/>
<g clip-path="url(#clip0_3060_8101)">
<path d="M27.9999 16.3335C23.4849 16.3335 19.8333 19.9852 19.8333 24.5002C19.8333 26.5302 20.4166 28.4318 21.4783 30.1468C22.5866 31.9435 24.0449 33.4835 25.1649 35.2802C25.7133 36.1552 26.1099 36.9718 26.5299 37.9168C26.8333 38.5585 27.0783 39.6668 27.9999 39.6668C28.9216 39.6668 29.1666 38.5585 29.4583 37.9168C29.8899 36.9718 30.2749 36.1552 30.8233 35.2802C31.9433 33.4952 33.4016 31.9552 34.5099 30.1468C35.5833 28.4318 36.1666 26.5302 36.1666 24.5002C36.1666 19.9852 32.5149 16.3335 27.9999 16.3335ZM27.9999 27.7085C26.3899 27.7085 25.0833 26.4018 25.0833 24.7918C25.0833 23.1818 26.3899 21.8752 27.9999 21.8752C29.6099 21.8752 30.9166 23.1818 30.9166 24.7918C30.9166 26.4018 29.6099 27.7085 27.9999 27.7085Z" fill="white"/>
</g>
<defs>
<clipPath id="clip0_3060_8101">
<rect width="28" height="28" fill="white" transform="translate(14.0002 14)"/>
</clipPath>
</defs>
</svg>
