<svg width="56" height="56" viewBox="0 0 56 56" fill="none" xmlns="http://www.w3.org/2000/svg">
<rect x="0.000244141" width="56" height="56" fill="#3C3976"/>
<g clip-path="url(#clip0_3060_8738)">
<path d="M28.0002 20.375C29.4502 20.375 30.6252 21.55 30.6252 23C30.6252 24.45 29.4502 25.625 28.0002 25.625C26.5502 25.625 25.3752 24.45 25.3752 23C25.3752 21.55 26.5502 20.375 28.0002 20.375ZM28.0002 31.625C31.7127 31.625 35.6252 33.45 35.6252 34.25V35.625H20.3752V34.25C20.3752 33.45 24.2877 31.625 28.0002 31.625ZM28.0002 18C25.2377 18 23.0002 20.2375 23.0002 23C23.0002 25.7625 25.2377 28 28.0002 28C30.7627 28 33.0002 25.7625 33.0002 23C33.0002 20.2375 30.7627 18 28.0002 18ZM28.0002 29.25C24.6627 29.25 18.0002 30.925 18.0002 34.25V36.75C18.0002 37.4375 18.5627 38 19.2502 38H36.7502C37.4377 38 38.0002 37.4375 38.0002 36.75V34.25C38.0002 30.925 31.3377 29.25 28.0002 29.25Z" fill="white"/>
<path d="M28.0002 31.625C31.7127 31.625 35.6252 33.45 35.6252 34.25V35.625H20.3752V34.25C20.3752 33.45 24.2877 31.625 28.0002 31.625Z" fill="white"/>
<path d="M28.0002 20.375C29.4502 20.375 30.6252 21.55 30.6252 23C30.6252 24.45 29.4502 25.625 28.0002 25.625C26.5502 25.625 25.3752 24.45 25.3752 23C25.3752 21.55 26.5502 20.375 28.0002 20.375Z" fill="white"/>
</g>
<defs>
<clipPath id="clip0_3060_8738">
<rect width="28" height="28" fill="white" transform="translate(14.0002 14)"/>
</clipPath>
</defs>
</svg>
