<svg width="30" height="30" viewBox="0 0 30 30" fill="none" xmlns="http://www.w3.org/2000/svg">
<path d="M26.25 10V8.75L22.5 11.25L18.75 8.75V10L22.15 12.275C22.3625 12.4125 22.6375 12.4125 22.8375 12.275L26.25 10ZM27.5 3.75H2.5C1.125 3.75 0 4.875 0 6.25V23.75C0 25.125 1.125 26.25 2.5 26.25H27.5C28.875 26.25 29.9875 25.125 29.9875 23.75L30 6.25C30 4.875 28.875 3.75 27.5 3.75ZM10 7.5C12.075 7.5 13.75 9.175 13.75 11.25C13.75 13.325 12.075 15 10 15C7.925 15 6.25 13.325 6.25 11.25C6.25 9.175 7.925 7.5 10 7.5ZM17.5 22.5H2.5V21.25C2.5 18.75 7.5 17.375 10 17.375C12.5 17.375 17.5 18.75 17.5 21.25V22.5ZM26.875 15H18.125C17.775 15 17.5 14.725 17.5 14.375V8.125C17.5 7.775 17.775 7.5 18.125 7.5H26.875C27.225 7.5 27.5 7.775 27.5 8.125V14.375C27.5 14.725 27.225 15 26.875 15Z" fill="white"/>
</svg>
