<svg width="34" height="34" viewBox="0 0 34 34" fill="none" xmlns="http://www.w3.org/2000/svg">
<g clip-path="url(#clip0_461_35415)">
<path d="M25.6324 20.9068L22.5961 20.5601C21.8669 20.4764 21.1497 20.7275 20.6357 21.2415L18.4361 23.441C15.0532 21.7196 12.2799 18.9583 10.5585 15.5634L12.77 13.3519C13.284 12.8379 13.535 12.1206 13.4514 11.3914L13.1047 8.37903C12.9613 7.17168 11.9452 6.26318 10.7259 6.26318H8.65786C7.30708 6.26318 6.18341 7.38685 6.26709 8.73765C6.90064 18.9463 15.0651 27.0989 25.2618 27.7325C26.6126 27.8162 27.7363 26.6925 27.7363 25.3417V23.2737C27.7482 22.0663 26.8397 21.0502 25.6324 20.9068Z" fill="white"/>
</g>
<defs>
<clipPath id="clip0_461_35415">
<rect width="34" height="34" fill="white"/>
</clipPath>
</defs>
</svg>
