<svg width="56" height="56" viewBox="0 0 56 56" fill="none" xmlns="http://www.w3.org/2000/svg">
<rect x="0.000244141" width="56" height="56" fill="#3C3976"/>
<g clip-path="url(#clip0_3060_3161)">
<path d="M21.7236 26.5883C23.4036 29.89 26.1102 32.585 29.4119 34.2767L31.9786 31.71C32.2936 31.395 32.7602 31.29 33.1686 31.43C34.4752 31.8617 35.8869 32.095 37.3336 32.095C37.9752 32.095 38.5002 32.62 38.5002 33.2617V37.3333C38.5002 37.975 37.9752 38.5 37.3336 38.5C26.3786 38.5 17.5002 29.6217 17.5002 18.6667C17.5002 18.025 18.0252 17.5 18.6669 17.5H22.7502C23.3919 17.5 23.9169 18.025 23.9169 18.6667C23.9169 20.125 24.1502 21.525 24.5819 22.8317C24.7102 23.24 24.6169 23.695 24.2902 24.0217L21.7236 26.5883Z" fill="white"/>
</g>
<defs>
<clipPath id="clip0_3060_3161">
<rect width="28" height="28" fill="white" transform="translate(14.0002 14)"/>
</clipPath>
</defs>
</svg>
