<svg width="30" height="22" viewBox="0 0 30 22" fill="none" xmlns="http://www.w3.org/2000/svg">
<path fill-rule="evenodd" clip-rule="evenodd" d="M4.67824 1.22736C2.64507 1.32636 1.01186 2.8909 0.879913 4.88726C0.753497 6.79992 0.628906 9.15338 0.628906 11C0.628906 12.8466 0.753497 15.2001 0.879913 17.1127C1.01186 19.1091 2.64507 20.6736 4.67824 20.7726C7.6224 20.916 11.8305 21.0888 15.0011 21.0888C18.1717 21.0888 22.3798 20.916 25.324 20.7726C27.3571 20.6736 28.9903 19.1091 29.1223 17.1127C29.2487 15.2001 29.3733 12.8466 29.3733 11C29.3733 9.15338 29.2487 6.79992 29.1223 4.88726C28.9903 2.8909 27.3571 1.32636 25.324 1.22736C22.3798 1.08402 18.1717 0.911133 15.0011 0.911133C11.8305 0.911133 7.6224 1.08402 4.67824 1.22736ZM20.1346 10.9995L11.9219 15.0351V6.96399L20.1346 10.9995Z" fill="white"/>
</svg>
