<svg width="18" height="18" viewBox="0 0 18 18" fill="none" xmlns="http://www.w3.org/2000/svg">
<g clip-path="url(#clip0_3489_20434)">
<path d="M15 3H3C2.175 3 1.5 3.675 1.5 4.5V13.5C1.5 14.325 2.175 15 3 15H15C15.825 15 16.5 14.325 16.5 13.5V4.5C16.5 3.675 15.825 3 15 3ZM14.7 6.1875L9.795 9.255C9.3075 9.5625 8.6925 9.5625 8.205 9.255L3.3 6.1875C3.1125 6.0675 3 5.865 3 5.6475C3 5.145 3.5475 4.845 3.975 5.1075L9 8.25L14.025 5.1075C14.4525 4.845 15 5.145 15 5.6475C15 5.865 14.8875 6.0675 14.7 6.1875Z" fill="white"/>
</g>
<defs>
<clipPath id="clip0_3489_20434">
<rect width="18" height="18" fill="white"/>
</clipPath>
</defs>
</svg>
